# xmcd
#
# Track frame offsets:
#	150
#	18808
#	34370
#	50520
#	65551
#	80293
#	98383
#	112546
#	125798
#	142634
#	161211
#	177263
#	196509
#	210256
#	219261
#
# Disc length: 3105 seconds
#
# Revision: 1
# Processed by: cddbd v1.5.2PL0 Copyright (c) Steve Scherf et al.
# Submitted via: audiograbber 1.83.01
#
DISCID=b60c1f0f
DTITLE=AUGUSTO CESAR - O MELHOR DE
DYEAR=1900
DGENRE=
TTITLE0=HOM. A PAULO SÉRGIO
TTITLE1=COMO POSSO TE ESQUECER
TTITLE2=AMOR, AMOR
TTITLE3=MENINA, MENINA
TTITLE4=TOQUE EM MIM
TTITLE5=AMOR DIVIDIDO
TTITLE6=DEPOIS DO AMOR
TTITLE7=ESCALADA
TTITLE8=SÓ QUERO TE DIZER
TTITLE9=PRECISO SAIR DA SOLIDÃO
TTITLE10=IMPOSSÍVEL ACREDITAR QUE PERDI VOCÊ
TTITLE11=PRECISO TE ENCONTRAR
TTITLE12=A BARCA
TTITLE13=SERÁ
TTITLE14=VOCÊ É OUTRA
EXTD=
EXTT0=
EXTT1=
EXTT2=
EXTT3=
EXTT4=
EXTT5=
EXTT6=
EXTT7=
EXTT8=
EXTT9=
EXTT10=
EXTT11=
EXTT12=
EXTT13=
EXTT14=
PLAYORDER=
